PathFileType	4	(X/Y/Z)	/Users/itak/Documents/Research/Walk-IL/dataset/trc/00327_00011.trc
DataRate	CameraRate	NumFrames	NumMarkers	Units	OrigDataRate	OrigDataStartFrame	OrigNumFrames
100.000000	100.000000	4	53	mm	100.000000	138	555
Frame#	Time	RPSI			LPSI			L3			STRN			T10			C7			CLAV			RBAK			LBAK			LSHO			LUPA			LAEL			LAOL			LWTS			LWPS			LFRA			LIFD			LHPS			LHTS			RSHO			RUPA			RAEL			RAOL			RWTS			RWPS			RFRA			RIFD			RHTS			RHPS			RBHD			LFHD			RFHD			LBHD			LHIP			RHIP			RASI			LASI			LKNE			LTHI			LANK			LTIP			LTOE			LMT1			LMT5			LHEE			RKNE			RTHI			RANK			RTIP			RTOE			RMT1			RMT5			RHEE			
		X1	Y1	Z1	X2	Y2	Z2	X3	Y3	Z3	X4	Y4	Z4	X5	Y5	Z5	X6	Y6	Z6	X7	Y7	Z7	X8	Y8	Z8	X9	Y9	Z9	X10	Y10	Z10	X11	Y11	Z11	X12	Y12	Z12	X13	Y13	Z13	X14	Y14	Z14	X15	Y15	Z15	X16	Y16	Z16	X17	Y17	Z17	X18	Y18	Z18	X19	Y19	Z19	X20	Y20	Z20	X21	Y21	Z21	X22	Y22	Z22	X23	Y23	Z23	X24	Y24	Z24	X25	Y25	Z25	X26	Y26	Z26	X27	Y27	Z27	X28	Y28	Z28	X29	Y29	Z29	X30	Y30	Z30	X31	Y31	Z31	X32	Y32	Z32	X33	Y33	Z33	X34	Y34	Z34	X35	Y35	Z35	X36	Y36	Z36	X37	Y37	Z37	X38	Y38	Z38	X39	Y39	Z39	X40	Y40	Z40	X41	Y41	Z41	X42	Y42	Z42	X43	Y43	Z43	X44	Y44	Z44	X45	Y45	Z45	X46	Y46	Z46	X47	Y47	Z47	X48	Y48	Z48	X49	Y49	Z49	X50	Y50	Z50	X51	Y51	Z51	X52	Y52	Z52	X53	Y53	Z53	

139	1.38	909.4606323242188	976.073974609375	230.6999359130859	913.7506713867188	975.0892333984375	101.832649230957	903.5744018554688	1034.775268554688	173.0967407226562	1138.443237304688	1211.949951171875	157.1338195800781	894.9960327148438	1154.723022460938	163.7680969238281	932.3549194335938	1401.636596679688	143.9226226806641	1091.188232421875	1334.840698242188	148.649169921875	883.05517578125	1266.740844726562	220.3717651367188	925.8634643554688	1359.888549804688	41.97704696655273	1013.08544921875	1375.412841796875	-13.28147983551025	1002.896911621094	1254.879150390625	-81.76715087890625	1030.291870117188	1050.803833007812	-87.565673828125	957.7422485351562	1036.709594726562	-45.06580352783203	1119.919799804688	810.611572265625	-17.43296051025391	1095.788696289062	799.3287963867188	-81.05352020263672	1049.53515625	947.0535888671875	-89.15413665771484	1122.379272460938	650.0594482421875	-10.55121040344238	1091.686889648438	728.767333984375	-76.14609527587891	1136.3134765625	732.3111572265625	-30.17486190795898	1001.877563476562	1382.831298828125	304.086669921875	997.912841796875	1319.759643554688	373.3360900878906	1010.869323730469	1052.545532226562	410.8639831542969	943.1349487304688	1041.218139648438	341.3314819335938	1104.8046875	825.49853515625	336.954833984375	1090.863525390625	811.4039916992188	410.7416381835938	1036.937622070312	984.8540649414062	411.1157836914062	1125.1298828125	655.8193969726562	342.2972717285156	1143.469482421875	727.574462890625	345.1956176757812	1109.558227539062	728.1378173828125	407.0479125976562	948.4989624023438	1593.003662109375	226.2205352783203	1115.687133789062	1629.367553710938	107.1105651855469	1105.857788085938	1629.4375	207.7296905517578	936.3043212890625	1583.864868164062	81.96615600585938	998.2083740234375	912.6148071289062	0.4125450253486633	986.6474609375	919.7410888671875	341.2339172363281	1091.927124023438	946.287109375	299.651123046875	1118.9267578125	936.9934692382812	60.22952270507812	1028.7333984375	453.0597229003906	10.30014801025391	1036.209350585938	592.6157836914062	0.3579599857330322	935.1896362304688	39.14867401123047	13.81716060638428	981.7354736328125	240.0103912353516	-1.313879370689392	1142.195190429688	31.53821563720703	68.90850830078125	1072.762939453125	19.88404083251953	112.8153533935547	1060.393920898438	33.10541152954102	-0.1830241978168488	900.5740966796875	32.36106491088867	80.48172760009766	1007.399841308594	452.6614074707031	319.8864440917969	1050.640014648438	710.1216430664062	345.0003051757812	946.6233520507812	42.55992889404297	294.8474731445312	1011.518981933594	335.4891662597656	310.0930480957031	1139.899047851562	32.83079528808594	241.8260803222656	1083.053466796875	27.21233940124512	200.7984008789062	1048.094116210938	30.02245330810547	312.8938903808594	895.2098999023438	42.17341232299805	247.7039337158203	
140	1.39	908.6665649414062	975.9383544921875	231.1236114501953	912.931884765625	975.0166015625	102.2313690185547	902.6312866210938	1034.93994140625	173.5858306884766	1138.064575195312	1212.00390625	157.7176818847656	894.5909423828125	1154.973510742188	164.2613372802734	932.096435546875	1401.759033203125	144.5466156005859	1090.869140625	1334.888671875	149.2028503417969	882.6337890625	1266.918579101562	220.9954223632812	925.5467529296875	1360.023315429688	42.60374069213867	1012.751647949219	1375.495239257812	-12.69102478027344	1002.3759765625	1254.981567382812	-81.212890625	1029.6884765625	1050.968505859375	-87.25239562988281	957.1589965820312	1036.864624023438	-44.72578811645508	1119.404418945312	810.7019653320312	-17.25984573364258	1095.190795898438	799.4938354492188	-80.93125915527344	1048.916870117188	947.1793823242188	-88.90021514892578	1121.887939453125	650.2811279296875	-10.58621978759766	1091.166137695312	728.9293823242188	-76.09912109375	1135.744384765625	732.47412109375	-30.12082481384277	1001.641418457031	1382.97119140625	304.6722106933594	997.7785034179688	1319.944580078125	373.9015197753906	1010.962341308594	1052.796630859375	411.5138244628906	942.9381103515625	1041.328125	342.3677062988281	1104.788818359375	825.747802734375	337.3608703613281	1091.104248046875	811.5969848632812	411.2482299804688	1037.079223632812	985.053466796875	411.7667846679688	1125.218017578125	656.0400390625	342.6720275878906	1143.403076171875	727.7783203125	345.5852966308594	1109.831176757812	728.3316040039062	407.4911804199219	948.3121337890625	1593.123046875	226.6457824707031	1115.511596679688	1629.384521484375	107.4629669189453	1105.6845703125	1629.553833007812	208.0614776611328	936.0859985351562	1583.939086914062	82.38956451416016	997.60546875	912.6058959960938	0.9253367185592651	985.7660522460938	919.7841186523438	341.8107604980469	1091.013305664062	946.3838500976562	300.2554931640625	1118.318725585938	937.0562133789062	60.9224967956543	1029.313232421875	453.0938110351562	10.76259994506836	1036.462280273438	592.6390380859375	0.8586653470993042	935.1998291015625	39.15935516357422	13.81641960144043	982.163330078125	239.9620666503906	-1.030705451965332	1142.182983398438	31.47730827331543	68.94647979736328	1072.755615234375	19.87013626098633	112.8274459838867	1060.400146484375	33.11902618408203	-0.1468387842178345	900.5350952148438	32.35133743286133	80.42536163330078	1008.200500488281	452.6047668457031	320.0665893554688	1050.563110351562	710.18408203125	345.2309265136719	946.6477661132812	42.58700180053711	294.808349609375	1012.273803710938	335.3419189453125	310.1028137207031	1139.896484375	32.8120231628418	241.8054351806641	1083.064453125	27.19336128234863	200.7592620849609	1048.108520507812	30.07013130187988	312.8224792480469	895.2481079101562	42.25135803222656	247.6716613769531	
141	1.4	907.864013671875	975.7987060546875	231.5857238769531	912.0530395507812	974.9410400390625	102.6552581787109	901.6366577148438	1035.1142578125	174.1114959716797	1137.654663085938	1212.051147460938	158.3336791992188	894.154052734375	1155.233032226562	164.7852935791016	931.8301391601562	1401.89599609375	145.1964721679688	1090.527709960938	1334.937866210938	149.7936248779297	882.1954956054688	1267.118041992188	221.6631011962891	925.2022094726562	1360.161376953125	43.25636672973633	1012.397888183594	1375.576416015625	-12.06645011901855	1001.818908691406	1255.084594726562	-80.62195587158203	1029.0380859375	1051.132568359375	-86.90094757080078	956.544189453125	1037.031860351562	-44.34485626220703	1118.838623046875	810.8098754882812	-17.02631759643555	1094.540405273438	799.6607055664062	-80.76362609863281	1048.256225585938	947.3019409179688	-88.60676574707031	1121.362182617188	650.5250854492188	-10.59227180480957	1090.593017578125	729.0986938476562	-75.99009704589844	1135.137084960938	732.6187133789062	-30.02396011352539	1001.410339355469	1383.13232421875	305.27783203125	997.632568359375	1320.141723632812	374.50244140625	1011.043762207031	1053.048217773438	412.1770324707031	942.6876831054688	1041.417358398438	343.4443969726562	1104.778564453125	826.0171508789062	337.7980041503906	1091.375366210938	811.8134155273438	411.7634582519531	1037.233642578125	985.2772827148438	412.4328918457031	1125.337158203125	656.2687377929688	343.141845703125	1143.349731445312	727.9795532226562	345.9884948730469	1110.108520507812	728.5414428710938	407.9385986328125	948.0841674804688	1593.24169921875	227.0910339355469	1115.314819335938	1629.404174804688	107.8566589355469	1105.484497070312	1629.66455078125	208.4361572265625	935.8589477539062	1584.01806640625	82.85163879394531	996.9728393554688	912.5995483398438	1.486543297767639	984.8009643554688	919.8201293945312	342.4208679199219	1090.0341796875	946.50244140625	300.89013671875	1117.67822265625	937.1263427734375	61.66485977172852	1029.921264648438	453.1216735839844	11.26066398620605	1036.76025390625	592.6378173828125	1.42358934879303	935.2108154296875	39.17240142822266	13.8175163269043	982.59326171875	239.9156951904297	-0.7415260076522827	1142.174682617188	31.41977691650391	68.98375701904297	1072.746215820312	19.85407638549805	112.8430480957031	1060.408813476562	33.13664245605469	-0.1077642440795898	900.521484375	32.34745788574219	80.39715576171875	1009.091125488281	452.5546875	320.2666320800781	1050.485595703125	710.2214965820312	345.4990234375	946.6768798828125	42.61486053466797	294.7653503417969	1013.131896972656	335.1548461914062	310.0948486328125	1139.896362304688	32.791259765625	241.7843017578125	1083.08203125	27.17316818237305	200.7164764404297	1048.12744140625	30.12300300598145	312.7434692382812	895.2853393554688	42.32986831665039	247.6411437988281	
142	1.41	907.0472412109375	975.6590576171875	232.0944061279297	911.1392211914062	974.8611450195312	103.1108016967773	900.5885009765625	1035.300659179688	174.6755523681641	1137.215454101562	1212.09619140625	158.9732055664062	893.67431640625	1155.498168945312	165.3380126953125	931.5549926757812	1402.048461914062	145.8768157958984	1090.161376953125	1334.98095703125	150.4240570068359	881.7529296875	1267.341918945312	222.3810272216797	924.8275146484375	1360.302490234375	43.93866729736328	1012.020263671875	1375.652221679688	-11.40330791473389	1001.229797363281	1255.189697265625	-79.99773406982422	1028.346923828125	1051.295166015625	-86.51116180419922	955.8877563476562	1037.206176757812	-43.92769241333008	1118.213134765625	810.9331665039062	-16.74778938293457	1093.838134765625	799.818603515625	-80.54407501220703	1047.553955078125	947.41943359375	-88.27146148681641	1120.787231445312	650.759521484375	-10.5456485748291	1089.951904296875	729.2623291015625	-75.81113433837891	1134.490844726562	732.7363891601562	-29.86655616760254	1001.180541992188	1383.30859375	305.9050903320312	997.4757690429688	1320.345947265625	375.144287109375	1011.10595703125	1053.292846679688	412.8647155761719	942.3546142578125	1041.497314453125	344.5480651855469	1104.777465820312	826.3053588867188	338.2726135253906	1091.66455078125	812.0564575195312	412.2903442382812	1037.400268554688	985.53173828125	413.1053466796875	1125.48095703125	656.5048828125	343.7012023925781	1143.323364257812	728.179443359375	346.4235534667969	1110.39794921875	728.7744750976562	408.4001770019531	947.8197631835938	1593.360717773438	227.5587005615234	1115.097534179688	1629.430419921875	108.2924728393555	1105.2607421875	1629.768432617188	208.8560028076172	935.6220703125	1584.103515625	83.35353851318359	996.3946533203125	912.5919189453125	2.116475105285645	983.7410278320312	919.8466186523438	343.0669250488281	1088.989624023438	946.6406860351562	301.556884765625	1117.00537109375	937.203857421875	62.46339416503906	1030.556274414062	453.1404113769531	11.79983615875244	1037.097290039062	592.6083374023438	2.058371305465698	935.2219848632812	39.18785858154297	13.82085037231445	983.0314331054688	239.8773193359375	-0.4414642751216888	1142.174194335938	31.37437057495117	69.01748657226562	1072.735107421875	19.83672714233398	112.8623199462891	1060.419799804688	33.15823745727539	-0.0660678893327713	900.5432739257812	32.35284423828125	80.40731811523438	1010.06787109375	452.5007019042969	320.4768981933594	1050.394775390625	710.234130859375	345.81689453125	946.7110595703125	42.64567565917969	294.7175598144531	1014.084045410156	334.9344482421875	310.0737915039062	1139.898803710938	32.76868057250977	241.7626953125	1083.107177734375	27.14911842346191	200.6680297851562	1048.148803710938	30.17402076721191	312.6622009277344	895.322509765625	42.40728759765625	247.6105346679688	
